<svg id="Layer_1" data-name="Layer 1" xmlns="http://www.w3.org/2000/svg" viewBox="0 0 56 56"><defs><style>.cls-1{fill:#272525;}.cls-2{fill:#ffbc42;}</style></defs><path class="cls-1" d="M43.31,21.27a15.76,15.76,0,1,0-30.62,0,23.46,23.46,0,0,0,1.72,6.12c1.55,3.26,8.06,14,11.06,18.88-4,.52-5.93,2.26-5.93,3.9,0,1.95,2.65,4,8.46,4s8.45-2.1,8.45-4c0-1.64-1.87-3.38-5.92-3.9,3-4.89,9.51-15.62,11.06-18.88A23.46,23.46,0,0,0,43.31,21.27Z"/><path class="cls-2" d="M34,50.17c-.17.46-2.2,1.61-6,1.61s-5.9-1.18-6-1.6c.11-.4,1.77-1.4,4.91-1.59,0,.06.06.1.07.13a1.23,1.23,0,0,0,2.08,0s0-.07.07-.13C32.21,48.78,33.87,49.75,34,50.17Z"/><path class="cls-2" d="M40.93,20.73s0,.06,0,.1a21.62,21.62,0,0,1-1.53,5.52c-1.56,3.28-8.69,15-11.39,19.4-2.7-4.4-9.83-16.12-11.39-19.4a21.62,21.62,0,0,1-1.53-5.52s0-.07,0-.1a13.32,13.32,0,1,1,25.86,0Z"/><path class="cls-1" d="M28,8.68a8.46,8.46,0,1,0,8.45,8.46A8.47,8.47,0,0,0,28,8.68Z"/><path class="cls-2" d="M28,23.16a6,6,0,1,1,6-6A6,6,0,0,1,28,23.16Z"/></svg>