<svg id="Layer_1" data-name="Layer 1" xmlns="http://www.w3.org/2000/svg" viewBox="0 0 150 112.5"><defs><style>.cls-1{fill:none;stroke:#fff;stroke-miterlimit:10;stroke-width:1.5px;}</style></defs><path class="cls-1" d="M13.69,40.94l5,15.3,5-15.3h5.36L21.75,60.88H15.64L8.29,40.94Z"/><path class="cls-1" d="M31.44,35.62a3.1,3.1,0,1,1,3.1,3A3,3,0,0,1,31.44,35.62ZM32,40.94h5V60.88H32Z"/><path class="cls-1" d="M49.62,61.21c-5,0-8.5-2.92-8.71-6.62H46c.18,1.51,1.59,2.66,3.6,2.66s3.06-.9,3.06-2c0-3.57-11.26-1.3-11.26-8.61,0-3.31,2.95-6,7.88-6s7.74,2.63,8,6.59H52.46c-.14-1.55-1.37-2.59-3.34-2.59s-2.85.75-2.85,1.9c0,3.64,11,1.37,11.2,8.68C57.47,58.62,54.48,61.21,49.62,61.21Z"/><path class="cls-1" d="M75.57,49.87c0-3.2-1.76-4.93-4.42-4.93s-4.5,1.73-4.5,4.93v11h-5V40.94h5v2.49a7.44,7.44,0,0,1,6-2.77c4.64,0,8,3,8,8.53V60.88h-5Z"/><path class="cls-1" d="M94.12,61.21c-5.8,0-10-4-10-10.3s4.1-10.29,10-10.29c5.76,0,9.82,3.92,9.82,9.86a11.63,11.63,0,0,1-.14,2H89.22A4.66,4.66,0,0,0,94,57a4.1,4.1,0,0,0,4-2.41h5.44A9.27,9.27,0,0,1,94.12,61.21ZM89.26,49h9.46A4.43,4.43,0,0,0,94,44.76,4.62,4.62,0,0,0,89.26,49Z"/><path class="cls-1" d="M108.41,45.08H106V40.94h2.38V36h5.07v4.93H118v4.14h-4.47v9.65c0,1.33.54,1.91,2.13,1.91H118v4.24h-3.17c-3.82,0-6.37-1.61-6.37-6.19Z"/><path class="cls-1" d="M130.44,61.21c-5.76,0-10.12-4-10.12-10.3a10.26,10.26,0,1,1,20.52,0C140.84,57.18,136.23,61.21,130.44,61.21Zm0-4.39c2.66,0,5.22-2,5.22-5.91s-2.49-5.9-5.15-5.9-5.08,1.91-5.08,5.9S127.74,56.82,130.44,56.82Z"/></svg>